<!DOCTYPE svg PUBLIC "-//W3C//DTD SVG 20010904//EN" "http://www.w3.org/TR/2001/REC-SVG-20010904/DTD/svg10.dtd">
<svg version="1.0" xmlns="http://www.w3.org/2000/svg" width="2000px" height="2000px" viewBox="0 0 12000 12000" preserveAspectRatio="xMidYMid meet">
<g id="layer101" fill="#121212" stroke="none">
 <path d="M5940 11462 c-19 -9 -59 -46 -89 -82 -162 -195 -280 -291 -461 -377 -204 -97 -369 -130 -600 -119 -432 20 -435 20 -503 -5 -83 -30 -102 -43 -167 -108 -83 -84 -120 -179 -120 -305 1 -140 73 -274 187 -351 48 -31 153 -65 204 -65 89 0 198 52 278 134 45 46 46 46 111 19 118 -49 198 -122 277 -250 99 -161 185 -433 249 -783 27 -150 73 -480 80 -575 l6 -70 -37 -23 c-44 -28 -75 -77 -75 -119 0 -31 -2 -33 -37 -33 -84 0 -139 -70 -130 -163 4 -48 8 -53 146 -191 l141 -141 0 -553 c0 -440 -3 -552 -13 -552 -7 0 -29 -14 -50 -31 -27 -22 -41 -45 -53 -85 -14 -48 -18 -54 -42 -54 -69 0 -132 -68 -132 -143 0 -41 9 -63 43 -105 32 -39 220 -235 235 -245 9 -6 12 -359 12 -1706 l0 -1698 -40 -27 c-46 -30 -70 -63 -79 -108 -5 -26 -14 -34 -51 -46 -75 -25 -96 -46 -117 -113 -17 -58 -20 -62 -62 -78 -64 -23 -86 -58 -86 -134 1 -38 7 -74 17 -93 17 -31 17 -31 -19 -63 -53 -47 -59 -49 -153 -43 -100 5 -163 -10 -243 -60 -55 -35 -121 -106 -149 -163 -38 -76 -33 -74 -196 -69 -365 9 -704 39 -773 68 -19 7 -65 17 -104 20 -38 4 -108 15 -155 26 -92 21 -210 45 -305 61 -161 27 -306 48 -360 54 -91 8 -279 -11 -385 -40 -52 -14 -131 -34 -175 -45 -238 -55 -376 -164 -450 -355 -30 -76 -28 -265 4 -358 42 -126 161 -267 266 -316 106 -50 314 -50 421 0 73 35 156 118 195 196 32 65 34 73 34 173 0 99 -2 108 -33 164 -17 33 -30 61 -27 64 15 15 474 -207 845 -410 166 -91 442 -227 585 -288 28 -12 64 -27 80 -34 263 -114 549 -161 834 -137 212 17 326 49 516 143 91 46 266 156 312 197 10 9 48 41 83 71 36 30 90 78 120 106 69 66 102 94 108 94 3 0 29 -22 58 -50 40 -38 60 -50 84 -50 24 0 44 12 84 50 29 28 55 50 58 50 6 0 31 -22 128 -114 36 -33 87 -79 115 -101 27 -22 56 -46 64 -53 68 -65 401 -252 491 -276 14 -4 34 -11 45 -16 97 -41 387 -66 590 -51 274 21 513 105 985 344 129 66 240 123 245 127 29 22 638 332 700 357 99 39 116 45 120 41 3 -3 -10 -34 -27 -69 -31 -59 -33 -71 -33 -164 0 -90 3 -106 29 -160 88 -180 257 -262 486 -236 131 15 195 52 316 185 25 27 73 124 90 181 25 86 25 261 0 335 -27 79 -74 147 -144 211 -78 70 -155 107 -307 148 -66 18 -140 39 -165 46 -153 45 -397 53 -570 17 -58 -11 -134 -24 -169 -28 -35 -3 -78 -12 -95 -19 -17 -7 -65 -16 -106 -20 -41 -3 -95 -15 -120 -25 -26 -11 -81 -21 -130 -23 -47 -3 -101 -12 -120 -20 -72 -30 -413 -61 -782 -71 -163 -5 -158 -7 -196 69 -28 56 -93 127 -149 163 -70 44 -150 64 -246 62 -106 -3 -96 -6 -144 36 l-41 36 20 45 c25 56 21 131 -9 171 -11 15 -40 34 -64 43 -42 16 -45 20 -62 78 -21 67 -42 88 -117 113 -38 12 -45 19 -51 48 -9 42 -36 79 -82 109 l-37 24 0 1695 0 1695 109 111 c164 167 173 180 179 235 8 85 -39 148 -118 158 -38 5 -40 8 -55 59 -11 38 -25 61 -52 83 -21 17 -43 31 -50 31 -10 0 -13 112 -13 553 l0 552 145 146 c145 146 145 146 145 193 0 92 -53 156 -127 156 -27 0 -34 4 -38 28 -12 55 -36 93 -75 119 l-41 28 5 65 c9 108 47 374 77 550 37 215 106 502 138 575 5 11 21 49 36 85 73 179 196 328 318 388 37 17 77 32 89 32 14 0 46 -21 81 -54 101 -95 201 -128 320 -105 325 61 441 492 196 724 -101 96 -198 121 -419 109 -232 -12 -466 -10 -535 5 -306 67 -533 207 -756 466 -97 113 -145 135 -219 97z"/>
 </g>
<g id="layer102" fill="#ffffff" stroke="none">
 <path d="M5900 11348 c-204 -224 -328 -322 -515 -409 -127 -58 -332 -109 -442 -109 -50 0 -55 -14 -13 -38 17 -9 67 -41 112 -69 45 -29 90 -53 99 -53 9 0 57 11 105 25 247 71 460 221 696 493 20 23 43 42 52 42 8 0 79 -61 158 -136 244 -231 401 -336 596 -398 46 -14 91 -26 100 -26 21 0 243 131 245 145 1 5 -45 15 -102 22 -198 23 -381 90 -554 202 -103 67 -178 136 -332 304 -60 65 -86 87 -105 87 -19 0 -44 -21 -100 -82z"/>
 <path d="M6030 9582 c0 -1487 1 -1562 18 -1550 9 7 74 72 145 144 l127 131 0 524 c0 587 6 678 64 934 75 330 180 551 363 767 40 48 70 89 66 91 -5 2 -42 14 -83 27 -196 58 -381 182 -612 409 l-88 86 0 -1563z"/>
 <path d="M5914 11082 c-27 -26 -92 -88 -145 -137 -101 -96 -160 -139 -279 -202 -81 -43 -224 -103 -246 -103 -7 0 -25 -5 -39 -10 l-26 -10 74 -88 c156 -184 250 -362 321 -610 95 -328 106 -446 106 -1092 l0 -525 138 -138 139 -139 6 60 c11 103 21 3006 11 3025 -8 14 -16 10 -60 -31z"/>
 <path d="M4352 10845 c-120 -27 -212 -101 -265 -213 -29 -61 -32 -76 -32 -162 0 -82 4 -103 27 -152 35 -76 106 -150 171 -179 74 -33 201 -34 272 -1 101 46 149 118 150 222 0 87 -31 151 -92 190 -83 53 -172 48 -236 -13 -65 -61 -67 -140 -5 -204 27 -27 39 -33 76 -33 35 0 49 6 73 29 34 35 37 68 9 104 -25 32 -56 43 -75 27 -18 -15 -45 -6 -45 15 0 19 39 35 85 35 51 0 105 -57 105 -111 0 -65 -23 -107 -72 -129 -89 -40 -185 -11 -225 70 -54 106 -8 230 102 276 67 28 151 23 226 -13 35 -17 91 -39 124 -48 160 -46 311 -162 410 -315 185 -288 295 -803 312 -1470 3 -129 8 -240 12 -246 8 -15 158 -144 166 -144 4 0 5 240 2 533 -4 477 -7 546 -26 667 -78 502 -262 856 -563 1080 -95 71 -238 142 -341 169 -106 28 -263 35 -345 16z"/>
 <path d="M7415 10849 c-196 -16 -416 -132 -592 -311 -258 -264 -406 -651 -443 -1161 -6 -79 -10 -337 -8 -579 l3 -437 86 84 86 83 6 249 c15 578 106 1065 257 1364 57 113 92 162 175 245 75 74 188 141 275 164 25 6 80 27 123 47 159 71 305 32 353 -94 21 -53 14 -145 -14 -182 -24 -35 -98 -71 -142 -71 -118 0 -196 139 -122 218 35 37 72 48 121 36 26 -7 37 -15 39 -31 4 -26 -2 -28 -48 -11 -31 10 -35 9 -62 -21 -36 -40 -36 -75 1 -112 61 -60 166 -20 191 72 23 84 -56 177 -158 186 -68 7 -146 -36 -187 -101 -26 -42 -29 -58 -29 -120 0 -111 46 -181 149 -228 72 -33 209 -33 277 0 155 76 236 282 178 451 -51 153 -164 246 -308 257 -37 3 -80 6 -97 7 -16 2 -66 0 -110 -4z"/>
 <path d="M4700 10508 c0 -2 7 -21 15 -43 8 -22 14 -74 15 -115 l0 -75 58 -19 c75 -25 154 -76 216 -140 150 -155 281 -506 361 -970 3 -21 8 -36 11 -33 11 10 -38 374 -72 537 -90 428 -268 723 -499 825 -47 21 -105 39 -105 33z"/>
 <path d="M7220 10486 c-238 -97 -395 -334 -505 -761 -35 -135 -72 -368 -79 -490 -6 -107 -4 -105 20 20 75 393 201 714 336 856 58 61 155 124 224 146 l54 17 0 66 c0 37 7 89 15 116 8 27 15 50 15 52 0 6 -30 -2 -80 -22z"/>
 <path d="M5377 8463 c-21 -5 -47 -53 -47 -86 0 -14 20 -47 51 -83 69 -79 612 -644 620 -644 7 0 564 580 623 649 56 66 60 99 17 142 -33 33 -50 35 -90 15 -15 -8 -140 -130 -278 -270 -137 -141 -256 -256 -264 -256 -24 0 -39 14 -304 279 -267 268 -269 269 -328 254z"/>
 <path d="M5225 8300 c-31 -12 -55 -44 -62 -82 -5 -33 0 -41 65 -114 39 -44 228 -236 421 -429 l351 -350 291 290 c160 160 349 352 421 428 127 135 130 139 124 175 -7 46 -46 85 -84 85 -40 0 -138 -91 -463 -429 -139 -145 -261 -267 -271 -270 -30 -9 -62 18 -273 235 -384 396 -430 440 -465 455 -21 8 -43 11 -55 6z"/>
 <path d="M5454 7767 c-2 -7 -3 -238 -2 -513 l3 -500 85 -81 85 -81 3 516 2 516 -77 78 c-43 43 -81 78 -86 78 -4 0 -10 -6 -13 -13z"/>
 <path d="M6447 7702 l-77 -78 2 -516 3 -516 85 81 85 81 3 490 c3 472 1 536 -16 536 -4 0 -42 -35 -85 -78z"/>
 <path d="M5680 7048 l1 -513 144 -150 144 -150 1 525 0 525 -138 138 c-75 75 -141 137 -145 137 -4 0 -7 -231 -7 -512z"/>
 <path d="M6168 7423 l-138 -138 1 -435 c1 -239 4 -473 7 -519 l7 -83 138 145 137 145 -1 474 c0 260 -3 490 -7 511 l-7 37 -137 -137z"/>
 <path d="M5383 6685 c-37 -16 -53 -42 -53 -85 0 -37 -14 -22 583 -635 l88 -90 170 175 c455 469 499 517 499 555 0 50 -36 85 -87 85 -37 1 -48 -10 -305 -270 -251 -254 -268 -270 -290 -259 -13 6 -135 124 -271 264 -143 146 -258 257 -275 263 -20 7 -37 6 -59 -3z"/>
 <path d="M5197 6510 c-32 -25 -44 -78 -26 -111 7 -13 144 -159 306 -324 345 -353 294 -303 421 -421 l104 -97 370 369 c203 203 392 396 420 428 45 53 49 63 44 95 -7 45 -46 81 -89 81 -29 1 -65 -33 -382 -355 -193 -195 -357 -355 -365 -355 -8 0 -172 160 -365 355 -314 319 -353 356 -381 355 -17 0 -43 -9 -57 -20z"/>
 <path d="M5456 5949 c-3 -34 -6 -785 -6 -1669 l0 -1607 41 -29 c22 -15 58 -48 80 -73 22 -24 43 -41 47 -37 4 4 8 753 10 1664 l3 1656 -78 78 c-43 43 -80 78 -84 78 -3 0 -9 -28 -13 -61z"/>
 <path d="M6447 5932 l-77 -77 0 -98 c0 -53 -4 -97 -8 -97 -4 0 -5 -30 -1 -67 5 -38 8 -728 8 -1534 1 -807 4 -1481 7 -1498 l7 -32 56 54 c31 29 68 61 84 71 l27 18 0 1587 c0 1477 -3 1751 -19 1751 -4 0 -41 -35 -84 -78z"/>
 <path d="M5680 4131 l0 -1673 136 -144 c75 -79 141 -144 145 -144 5 0 9 753 9 1673 l0 1672 -145 145 -145 145 0 -1674z"/>
 <path d="M6296 5781 c-11 -12 -25 -21 -33 -21 -7 0 -13 -5 -13 -11 0 -6 -49 -61 -110 -123 l-110 -113 0 -1671 c0 -920 4 -1672 9 -1672 4 0 70 65 145 144 l136 144 -2 1672 c-3 1645 -3 1672 -22 1651z"/>
 <path d="M5373 2608 c-23 -11 -43 -55 -43 -94 0 -16 77 -103 273 -305 149 -155 287 -299 305 -320 18 -21 46 -48 62 -59 27 -19 32 -20 51 -7 11 9 162 162 335 342 222 231 314 334 314 350 0 48 -21 84 -56 95 -18 6 -42 9 -52 5 -11 -3 -139 -127 -285 -275 -146 -149 -269 -270 -274 -270 -8 0 -408 397 -435 432 -30 38 -133 118 -152 117 -12 0 -31 -5 -43 -11z"/>
 <path d="M5209 2445 c-33 -18 -54 -66 -44 -102 7 -28 48 -73 385 -418 108 -110 253 -258 322 -330 l127 -130 334 340 c469 479 507 521 507 551 0 61 -60 115 -111 99 -25 -8 -149 -130 -481 -472 -123 -126 -216 -215 -231 -219 -16 -4 -36 0 -55 11 -16 10 -156 150 -313 313 -285 296 -367 372 -397 372 -10 -1 -29 -7 -43 -15z"/>
 <path d="M5039 2241 c-22 -23 -29 -39 -29 -69 0 -45 13 -61 275 -338 88 -93 218 -232 290 -309 164 -176 350 -370 392 -408 30 -27 34 -27 54 -13 23 16 139 137 474 496 110 118 258 275 329 350 145 151 166 180 166 228 0 44 -46 92 -88 92 -42 0 -128 -81 -528 -493 -189 -195 -347 -350 -360 -353 -17 -4 -34 2 -61 24 -21 16 -193 190 -382 385 -189 196 -360 369 -380 385 -77 61 -108 66 -152 23z"/>
 <path d="M4994 1976 c-21 -19 -35 -38 -31 -42 4 -4 27 11 50 34 50 50 37 56 -19 8z"/>
 <path d="M6988 1969 c24 -23 46 -38 50 -34 8 8 -66 75 -82 75 -6 0 8 -19 32 -41z"/>
 <path d="M5041 1944 c-33 -27 -40 -44 -18 -44 12 0 77 54 77 64 0 14 -31 4 -59 -20z"/>
 <path d="M6910 1963 c0 -13 53 -63 67 -63 20 0 16 14 -15 43 -27 26 -52 35 -52 20z"/>
 <path d="M4670 1912 c-73 -27 -105 -49 -149 -98 -69 -79 -101 -193 -81 -291 23 -109 81 -200 163 -257 156 -107 341 -105 560 5 91 47 193 118 270 190 l69 64 -98 107 -97 107 -36 -30 c-20 -17 -66 -55 -102 -84 -37 -30 -80 -72 -98 -93 -17 -22 -54 -55 -82 -73 -44 -28 -62 -33 -128 -37 -66 -3 -82 -1 -120 20 -25 13 -58 41 -75 62 -28 34 -31 44 -31 109 0 86 21 124 88 156 54 26 99 27 152 1 52 -25 78 -70 73 -125 -2 -32 -7 -40 -23 -40 -16 0 -21 8 -23 35 -5 69 -38 100 -105 100 -51 0 -94 -33 -107 -81 -35 -129 78 -218 225 -178 56 15 130 93 138 145 11 66 8 95 -15 142 -65 128 -233 194 -368 144z"/>
 <path d="M6870 1916 c0 -16 55 -66 73 -66 6 0 -7 18 -28 40 -44 45 -45 46 -45 26z"/>
 <path d="M7135 1913 c-77 -23 -131 -68 -165 -136 -35 -70 -38 -123 -11 -182 24 -53 55 -83 105 -106 118 -54 256 16 256 129 0 88 -76 140 -168 116 -26 -7 -52 -51 -52 -87 0 -31 -19 -50 -37 -36 -17 15 -17 61 1 104 19 45 66 69 136 69 68 0 112 -22 146 -74 23 -34 26 -48 22 -99 -6 -81 -39 -130 -113 -166 -49 -24 -64 -27 -125 -23 -56 4 -79 11 -120 38 -28 18 -63 48 -77 66 -22 29 -213 196 -236 206 -4 1 -50 -44 -102 -101 l-95 -105 37 -39 c100 -103 282 -218 431 -271 122 -44 278 -35 388 22 101 52 180 164 205 290 26 137 -46 293 -166 354 -91 47 -175 57 -260 31z"/>
 <path d="M5088 1891 c-18 -16 -30 -33 -26 -37 9 -8 45 21 59 48 14 26 4 22 -33 -11z"/>
 <path d="M5125 1849 c-19 -17 -35 -37 -35 -45 0 -10 5 -9 19 5 11 11 31 27 45 36 26 17 34 35 16 35 -5 0 -25 -14 -45 -31z"/>
 <path d="M6830 1871 c0 -13 71 -74 78 -67 6 7 -36 54 -60 67 -11 6 -18 6 -18 0z"/>
 <path d="M2312 1860 c-34 -4 -64 -9 -67 -11 -2 -3 40 -11 93 -18 53 -7 148 -24 211 -38 l114 -25 30 31 31 30 -25 10 c-67 25 -258 36 -387 21z"/>
 <path d="M9413 1859 c-44 -5 -94 -14 -109 -19 l-28 -11 31 -31 31 -30 73 17 c41 10 137 27 214 40 109 17 132 24 105 28 -66 11 -235 14 -317 6z"/>
 <path d="M5160 1803 c-43 -38 -67 -73 -51 -73 12 0 111 90 111 101 0 18 -21 8 -60 -28z"/>
 <path d="M6780 1831 c0 -11 99 -101 111 -101 16 0 -8 35 -51 73 -39 36 -60 46 -60 28z"/>
 <path d="M2805 1813 c-25 -7 -75 -42 -75 -53 0 -4 37 -18 81 -30 l81 -22 39 38 c39 38 39 38 17 50 -27 14 -115 24 -143 17z"/>
 <path d="M9092 1810 c-57 -14 -61 -26 -20 -67 l37 -36 81 23 c46 13 79 28 77 34 -12 35 -114 62 -175 46z"/>
 <path d="M5173 1730 c-58 -56 -75 -80 -55 -80 15 0 142 113 142 126 0 27 -26 13 -87 -46z"/>
 <path d="M6740 1777 c0 -14 70 -78 123 -111 50 -33 30 4 -35 65 -63 58 -88 71 -88 46z"/>
 <path d="M1945 1769 c-70 -10 -192 -66 -251 -114 -118 -97 -180 -305 -140 -465 23 -93 83 -206 138 -261 97 -97 245 -142 374 -115 140 29 241 101 290 209 38 83 40 195 5 274 -75 169 -283 222 -413 105 -102 -92 -104 -225 -6 -305 95 -76 240 -17 240 98 0 70 -52 111 -126 100 -49 -8 -68 7 -43 32 24 24 96 27 137 6 76 -39 101 -131 60 -220 -22 -50 -64 -78 -135 -93 -96 -20 -191 30 -229 122 -19 44 -21 145 -5 199 47 155 255 211 499 132 146 -47 424 -180 790 -378 606 -329 938 -467 1225 -512 133 -20 371 -13 512 16 304 63 550 204 858 494 l100 94 -99 106 -99 107 -81 -78 c-215 -203 -395 -307 -654 -380 -92 -26 -109 -27 -312 -27 -244 0 -298 8 -545 80 -242 71 -340 114 -953 419 -553 274 -705 333 -922 356 -108 11 -132 11 -215 -1z"/>
 <path d="M9750 1761 c-202 -46 -346 -106 -855 -359 -494 -245 -623 -304 -807 -367 -287 -99 -446 -129 -668 -128 -217 1 -369 34 -555 123 -117 56 -272 159 -345 230 -3 3 -37 36 -76 73 l-70 68 -99 -107 -99 -107 94 -90 c302 -286 554 -432 860 -497 235 -50 543 -32 785 46 211 68 494 200 930 436 322 174 410 218 598 302 244 109 283 120 422 121 111 0 124 -2 170 -27 62 -33 88 -60 116 -122 26 -61 29 -154 5 -211 -52 -123 -196 -166 -314 -95 -67 41 -94 165 -49 231 39 59 120 85 176 56 46 -23 37 -37 -24 -37 -68 0 -110 -25 -123 -73 -24 -90 71 -182 170 -163 43 8 101 55 122 100 32 67 15 155 -42 218 -124 137 -355 91 -433 -86 -33 -74 -32 -190 4 -268 50 -111 140 -180 283 -215 55 -14 75 -14 133 -4 223 40 370 208 396 456 20 187 -81 373 -247 454 -75 37 -128 48 -268 55 -83 5 -123 2 -190 -13z"/>
 <path d="M3024 1749 c-23 -11 -49 -28 -58 -38 -16 -18 -13 -20 59 -51 43 -17 78 -30 79 -28 30 40 66 100 66 111 0 9 -14 17 -37 21 -56 9 -64 8 -109 -15z"/>
 <path d="M8842 1759 c-15 -5 -21 -13 -16 -21 6 -11 63 -98 70 -106 1 -2 37 11 80 29 l78 32 -33 27 c-52 44 -127 60 -179 39z"/>
 <path d="M2460 1756 c0 -2 24 -12 53 -22 77 -25 275 -118 717 -337 550 -273 692 -330 978 -399 133 -32 143 -33 352 -33 189 1 226 3 305 23 154 38 288 97 420 185 110 74 296 240 295 265 0 4 -9 18 -19 32 l-19 24 -66 -62 c-121 -113 -275 -211 -407 -259 -67 -25 -88 -27 -210 -28 l-136 0 -77 39 c-44 22 -100 61 -129 91 l-52 51 -75 -25 c-61 -19 -96 -24 -185 -24 -112 -1 -147 5 -339 50 -107 26 -234 68 -807 266 -283 98 -599 184 -599 163z"/>
 <path d="M9429 1740 c-121 -25 -351 -97 -617 -191 -317 -113 -562 -194 -700 -230 -102 -28 -138 -32 -277 -36 -147 -4 -166 -2 -230 19 l-70 23 -50 -50 c-29 -29 -84 -67 -129 -90 l-79 -40 -136 0 c-123 1 -143 3 -210 28 -131 48 -281 143 -399 252 l-74 68 -24 -29 -24 -29 97 -92 c158 -152 332 -260 526 -325 131 -43 222 -57 382 -58 403 -1 647 82 1512 513 203 101 409 200 458 221 175 72 177 75 44 46z"/>
 <path d="M3242 1714 c-33 -17 -85 -81 -77 -94 5 -9 175 -73 179 -69 1 2 13 20 26 39 13 19 38 51 57 71 l34 35 -25 12 c-13 6 -55 13 -92 17 -54 4 -76 2 -102 -11z"/>
 <path d="M8585 1715 c-22 -8 -42 -15 -44 -15 -2 0 15 -20 37 -44 22 -24 48 -58 56 -75 9 -17 20 -31 24 -31 12 0 166 61 175 69 9 9 -33 67 -63 88 -31 22 -136 27 -185 8z"/>
 <path d="M3520 1659 c-61 -25 -135 -109 -113 -129 9 -9 149 -60 163 -60 5 0 19 19 31 42 12 23 43 65 70 93 l49 52 -31 7 c-46 9 -140 6 -169 -5z"/>
 <path d="M8298 1664 c-10 -3 -18 -7 -18 -10 0 -2 19 -21 41 -41 23 -21 55 -61 71 -90 17 -29 35 -53 41 -52 25 1 161 55 164 64 6 19 -36 74 -78 102 -37 24 -53 28 -123 30 -45 1 -89 -1 -98 -3z"/>
 <path d="M3830 1636 c-61 -17 -100 -39 -132 -73 -30 -31 -69 -104 -62 -115 5 -7 152 -54 187 -60 15 -2 24 11 42 60 28 73 74 142 110 166 14 9 23 21 20 26 -8 14 -111 11 -165 -4z"/>
 <path d="M8006 1642 c-3 -6 7 -20 23 -31 35 -25 82 -99 106 -166 10 -27 21 -54 25 -58 6 -7 157 39 193 59 15 8 14 14 -6 53 -30 60 -86 107 -149 126 -69 21 -183 31 -192 17z"/>
 <path d="M4127 1629 c-62 -15 -112 -45 -159 -98 -53 -59 -80 -133 -57 -156 11 -11 155 -45 190 -45 5 0 9 18 9 40 0 71 40 170 87 218 24 23 43 45 43 47 0 8 -71 4 -113 -6z"/>
 <path d="M7760 1632 c0 -6 13 -20 28 -31 45 -32 92 -129 99 -206 3 -36 9 -65 13 -65 34 0 178 34 189 45 41 40 -61 192 -158 234 -58 24 -171 40 -171 23z"/>
 <path d="M4303 1599 c-49 -24 -109 -87 -128 -133 -8 -18 -17 -55 -21 -83 -6 -46 -4 -52 14 -57 24 -8 169 9 220 25 38 12 39 19 12 124 -11 43 -20 93 -20 112 0 40 -16 43 -77 12z"/>
 <path d="M7626 1609 c-3 -8 -9 -44 -15 -81 -6 -36 -18 -86 -26 -109 -9 -23 -12 -46 -8 -50 26 -26 250 -56 269 -36 14 14 -15 129 -43 170 -54 78 -165 144 -177 106z"/>
 </g>

</svg>